<svg width="92" height="100" viewBox="0 0 92 100" fill="none" xmlns="http://www.w3.org/2000/svg">
<path d="M43.2056 53.5971H49.0273V41.0809H43.2056V53.5971ZM43.5534 41.4287H48.6794V53.2492H43.5534V41.4287Z" fill="#C3996B"/>
<path d="M46.8171 47.7122H48.0473V47.9809H48.3951V47.3643H46.8171V47.7122Z" fill="#C3996B"/>
<path d="M25.5542 47.9051V38.2349H21.75V47.9051H25.5542ZM22.0978 38.5827H25.2063V47.5604H22.0978V38.5827Z" fill="#C3996B"/>
<path d="M29.6777 38.2349H25.8735V47.9051H29.6777V38.2349ZM29.3299 47.5572H26.2214V38.5796H29.3299V47.5572Z" fill="#C3996B"/>
<path d="M29.6778 29.8833V23.6821H21.75V29.8833H29.6778ZM22.0978 24.03H29.3299V29.5355H22.0978V24.03Z" fill="#C3996B"/>
<path d="M25.5571 13.6325H21.7529V23.3027H25.5571V13.6325ZM25.2093 22.958H22.1008V13.9804H25.2093V22.958Z" fill="#C3996B"/>
<path d="M29.6777 13.6325H25.8735V23.3027H29.6777V13.6325ZM29.3299 22.958H26.2214V13.9804H29.3299V22.958Z" fill="#C3996B"/>
<path d="M66.6758 38.2349V47.9051H70.48V38.2349H66.6758ZM70.1321 47.5572H67.0236V38.5827H70.1321V47.5572Z" fill="#C3996B"/>
<path d="M62.5527 47.9051H66.3569V38.2349H62.5527V47.9051ZM62.9006 38.5827H66.0091V47.5572H62.9006V38.5827Z" fill="#C3996B"/>
<path d="M70.4805 29.8833V23.6821H62.5527V29.8833H70.4805ZM62.9006 24.03H70.1326V29.5355H62.9006V24.03Z" fill="#C3996B"/>
<path d="M70.48 13.6357H66.6758V23.3058H70.48V13.6357ZM70.1321 22.958H67.0236V13.9835H70.1321V22.958Z" fill="#C3996B"/>
<path d="M66.3569 13.6357H62.5527V23.3058H66.3569V13.6357ZM66.0091 22.958H62.9006V13.9835H66.0091V22.958Z" fill="#C3996B"/>
<path d="M79.4421 57.7807V55.9846H79.8469V54.5679H79.4421V51.4373V51.0293V47.9619V47.554V44.4866V44.0787V41.0113V40.6034V37.536V37.128V34.0607V33.6527V30.5853V30.1774V27.11V26.7021V23.6347V23.2268V20.1594V19.7515V16.6841V16.2761V13.2087V12.8008V9.99589H84.157L85.5958 8.11435H86.5856V6.69766H86.4275L46.6843 0.00632466L46.6558 0L6.06195 6.67236H5.64453V8.08905H6.63115L8.06682 9.97059H12.7849V12.7755V13.1834V16.2508V16.6588V19.7262V20.1341V23.2015V23.6094V26.6768V27.0847V30.1521V30.56V33.6274V34.0354V37.1027V37.5107V40.5781V40.986V44.0534V44.4613V47.5287V47.9366V51.004V51.412V54.5426H12.3801V55.9593H12.7849V57.7554H5.64769V59.1721H86.5888V57.7554H79.4421V57.7807ZM79.0942 57.7807H58.3277V56.1743H57.8123V55.9846H79.0911V57.7807H79.0942ZM16.918 51.0293V47.9619V47.554V44.4866V44.0787V41.0113V40.6034V37.536V37.128V34.0607V33.6527V30.5853V30.1774V27.11V26.7021V23.6347V23.2268V20.1594V19.7515V16.6841V16.2761V13.3795H19.4541V54.59H16.918V51.4594V51.0293ZM16.918 11.6845H75.3122V12.7755V13.0095H21.4748H19.4541H16.918V12.7755V11.6845ZM16.918 11.3367V9.97375H75.3122V11.3367H16.918ZM62.2331 54.5679V53.8501H70.7554V54.5679H62.2331ZM56.9869 54.5679V53.4358H56.7118V33.7982H56.8256L57.0027 32.3309H57.8154V31.2526H60.2124V54.571H57.8154H56.9869V54.5679ZM39.4807 37.5897H42.5734V39.7622V40.1101V54.5679H39.4807V37.5897ZM52.7527 37.2419H49.66H49.3121H42.918H42.5702H39.4775V36.5241H52.7495V37.2419H52.7527ZM49.3121 39.7622H42.918V37.5897H49.3121V39.7622ZM42.918 40.1101H49.3121V54.5679H42.918V40.1101ZM49.66 40.1101V39.7622V37.5897H52.7527V54.5679H49.66V40.1101ZM53.1005 37.5897V37.2419V36.1762H39.1328V37.2419V37.5897V54.5679H38.902V53.4927H38.5573V33.795H38.6711L38.8482 32.3277H53.3914L53.5685 33.795H53.6824V53.4326H53.3377V54.5647H53.1068V37.5897H53.1005ZM35.5943 53.8406H38.5541V54.5679H35.5943V53.8406ZM31.6256 30.9016V29.0769H60.6045V30.9016H31.6256ZM21.4748 54.5679V53.8501H29.9971V54.5679H21.4748ZM29.9971 33.3523H21.4748V32.6345H29.9971V33.3523ZM29.9971 34.418H21.4748V33.7002H29.9971V34.418ZM29.9971 35.4805H21.4748V34.7627H29.9971V35.4805ZM29.9971 36.5462H21.4748V35.8284H29.9971V36.5462ZM21.4748 36.894H29.9971V37.6119H21.4748V36.894ZM29.9971 32.2898H21.4748V31.572H29.9971V32.2898ZM29.9971 50.3115H21.4748V49.5937H29.9971V50.3115ZM29.9971 51.374H21.4748V50.6562H29.9971V51.374ZM21.4748 51.7219H29.9971V52.4397H21.4748V51.7219ZM29.9971 49.2458H21.4748V48.528H29.9971V49.2458ZM21.4748 52.7875H29.9971V53.5054H21.4748V52.7875ZM29.9971 48.1833H21.4748V37.9597H29.9971V48.1833ZM29.9971 31.2241H21.4748V30.5063H29.9971V31.2241ZM29.9971 30.1584H21.4748V13.3574H29.9971V30.1584ZM60.2124 13.3574V28.6342L46.2637 26.2942L32.0146 28.6342V13.3574H60.2124ZM70.7585 31.2241H62.2363V30.5063H70.7585V31.2241ZM70.7585 32.2898H62.2363V31.572H70.7585V32.2898ZM70.7585 33.3523H62.2363V32.6345H70.7585V33.3523ZM70.7585 34.418H62.2363V33.7002H70.7585V34.418ZM70.7585 35.4805H62.2363V34.7627H70.7585V35.4805ZM70.7585 36.5462H62.2363V35.8284H70.7585V36.5462ZM70.7585 49.2458H62.2363V48.528H70.7585V49.2458ZM70.7585 50.3115H62.2363V49.5937H70.7585V50.3115ZM70.7585 51.374H62.2363V50.6562H70.7585V51.374ZM70.7585 52.4397H62.2363V51.7219H70.7585V52.4397ZM70.7585 53.5022H62.2363V52.7844H70.7585V53.5022ZM62.2331 48.1833V37.9597H70.7554V48.1833H62.2331ZM70.7585 37.6087H62.2363V36.8909H70.7585V37.6087ZM58.6914 28.7291H33.5831L46.2669 26.6452L58.6914 28.7291ZM34.7626 31.2557H57.4676V31.9767H57.0438H53.344H38.8862H35.1863H34.7626V31.2557ZM56.5189 33.4472H53.8753L53.7393 32.3277H56.6549L56.5189 33.4472ZM56.3639 53.4358H54.0239V33.7982H56.3639V53.4358ZM38.494 32.3277L38.3581 33.4472H35.7144L35.5784 32.3277H38.494ZM35.8662 33.795H38.2063V53.4927H35.8662V33.795ZM53.6792 53.7836H56.6391V54.5679H53.6792V53.7836ZM60.5603 54.5679V31.2494H60.9524V28.7323H60.7943L60.5603 28.6943V13.3574H61.8853V54.5679H60.5603ZM72.4314 54.5679H71.1064V53.8501V52.7844V52.4365V51.7187V51.3708V50.653V50.3052V49.5873V49.2395V48.1738V37.9502V36.8846V36.5367V35.8189V35.471V34.7532V34.4053V33.6875V33.3397V32.6218V32.274V31.5561V31.2083V30.1426V13.3574H72.4314V54.5679ZM70.7585 30.1616H62.2363V13.3574H70.7585V30.1616ZM19.8019 13.3574H21.1269V54.5679H19.8019V13.3574ZM30.3449 54.5679V13.3574H31.6699V28.6911L31.4359 28.7291H31.2778V31.2463H31.6699V54.5647H30.3449V54.5679ZM32.0177 31.2494H34.4147V32.3277H35.2274L35.4045 33.795H35.5184V53.4927H35.2432V54.5679H34.5887H34.4147H32.0177V31.2494ZM34.7626 54.9157H35.2432H38.8988H39.1297H42.5702H42.918H49.3121H49.66H53.1005H53.3313H56.9869H57.4676V56.1743H34.7626V54.9157ZM57.8154 56.5222H57.983V57.7807H34.2503V56.5222H34.4179H57.8154ZM79.499 55.6367H79.4421H57.8154V54.9157H60.2124H62.2331H79.499V55.6367ZM72.7792 54.5679V13.3574H75.3153V16.254V16.6619V19.7293V20.1372V23.2046V23.6126V26.68V27.0879V30.1553V30.5632V33.6306V34.0385V37.1059V37.5138V40.5812V40.9892V44.0565V44.4645V47.5319V47.9398V51.0072V51.4151V54.5457H72.7792V54.5679ZM79.0974 54.5679H75.6632V51.4373H79.0974V54.5679ZM79.0974 51.0293H75.6632V47.9619H79.0974V51.0293ZM79.0974 47.5508H75.6632V44.4835H79.0974V47.5508ZM79.0974 44.0724H75.6632V41.005H79.0974V44.0724ZM79.0974 40.597H75.6632V37.5297H79.0974V40.597ZM79.0974 37.1186H75.6632V34.0512H79.0974V37.1186ZM79.0974 33.6401H75.6632V30.5727H79.0974V33.6401ZM79.0974 30.1648H75.6632V27.0974H79.0974V30.1648ZM79.0974 26.6863H75.6632V23.6189H79.0974V26.6863ZM79.0974 23.2078H75.6632V20.1404H79.0974V23.2078ZM79.0974 19.7293H75.6632V16.6619H79.0974V19.7293ZM79.0974 16.254H75.6632V13.3574V13.1866H79.0974V16.254ZM79.0974 12.7755H75.6632V11.3367V9.97375H79.0974V12.7755ZM46.6558 0.354173L84.3214 6.67236H8.20912L46.6558 0.354173ZM5.99238 7.7412V7.02021H6.07776H86.2378V7.7412H85.8615H6.36553H5.99238ZM8.24074 9.62274L7.07071 8.08905H85.1594L83.9894 9.62274H79.4453H75.3153H16.918H12.7881H8.24074ZM13.1359 9.97059H16.5701V11.3335V12.7724H13.1359V9.97059ZM13.1359 13.1834H16.5701V13.3542V16.2508H13.1359V13.1834ZM13.1359 16.6619H16.5701V19.7293H13.1359V16.6619ZM13.1359 20.1404H16.5701V23.2078H13.1359V20.1404ZM13.1359 23.6157H16.5701V26.6831H13.1359V23.6157ZM13.1359 27.0942H16.5701V30.1616H13.1359V27.0942ZM13.1359 30.5727H16.5701V33.6401H13.1359V30.5727ZM13.1359 34.0512H16.5701V37.1186H13.1359V34.0512ZM13.1359 37.5265H16.5701V40.5939H13.1359V37.5265ZM13.1359 41.005H16.5701V44.0724H13.1359V41.005ZM13.1359 44.4835H16.5701V47.5508H13.1359V44.4835ZM13.1359 47.9588H16.5701V51.0262H13.1359V47.9588ZM13.1359 51.4373H16.5701V54.5679H13.1359V51.4373ZM12.7311 55.6367V54.9157H12.7881H16.918H19.4541H21.1269H29.9971H32.0177H34.4147V55.6367H12.7881H12.7311ZM13.1359 55.9846H34.4147V56.1743H33.8993V57.7807H13.1359V55.9846ZM86.2409 58.8496H5.99554V58.1286H12.7912H33.9024H58.3309H79.4421H86.2378V58.8496H86.2409Z" fill="#C3996B"/>
<path d="M14.7231 97.1034H15.1406V98.3019L16.2727 97.1034H16.7849L15.7952 98.1279L16.8292 99.4846H16.3232L15.5105 98.4126L15.1406 98.7952V99.4846H14.7231V97.1034Z" fill="#6D6E70"/>
<path d="M18.0022 98.2956C18.0022 97.6252 18.5176 97.0654 19.2513 97.0654C19.9818 97.0654 20.4941 97.6188 20.4941 98.2956C20.4941 98.966 19.9786 99.5257 19.245 99.5257C18.5113 99.5257 18.0022 98.9723 18.0022 98.2956ZM20.0545 98.2956C20.0545 97.8339 19.7193 97.4481 19.245 97.4481C18.7706 97.4481 18.4418 97.8244 18.4418 98.2956C18.4418 98.7573 18.7769 99.143 19.2513 99.143C19.7225 99.1399 20.0545 98.7636 20.0545 98.2956Z" fill="#6D6E70"/>
<path d="M22.4328 97.4923H21.677V97.1034H23.6091V97.4923H22.8534V99.4846H22.4328V97.4923Z" fill="#6D6E70"/>
<path d="M25.6584 97.4923H24.9026V97.1034H26.8347V97.4923H26.0789V99.4846H25.6584V97.4923Z" fill="#6D6E70"/>
<path d="M28.2956 97.1034H30.0602V97.4765H28.7131V98.0963H29.9084V98.4695H28.7131V99.1082H30.076V99.4814H28.2925V97.1034H28.2956Z" fill="#6D6E70"/>
<path d="M31.325 99.1114H31.5558C31.7519 98.7193 31.8594 98.2386 31.8594 97.4417V97.1066H33.5196V99.1146H33.8168L33.7599 100H33.412V99.4909H31.736L31.6949 100H31.3281V99.1114H31.325ZM33.099 99.1114V97.4829H32.2578V97.7548C32.2578 98.305 32.1629 98.7825 31.9985 99.1114H33.099Z" fill="#6D6E70"/>
<path d="M36.5428 99.4846V98.8521L36.1696 98.4284L35.4581 99.4877H34.9553L35.8945 98.1216L35.0028 97.1066H35.5024L36.5428 98.3461V97.1066H36.957V98.3461L37.9974 97.1066H38.4971L37.6021 98.1216L38.5445 99.4877H38.0417L37.3302 98.4284L36.957 98.8521V99.4846H36.5428Z" fill="#6D6E70"/>
<path d="M39.9199 97.1034H40.3373V98.0932H41.4726V97.1034H41.89V99.4846H41.4726V98.4821H40.3373V99.4846H39.9199V97.1034Z" fill="#6D6E70"/>
<path d="M43.5251 97.1034H43.9394V97.9603H44.4865C45.0209 97.9603 45.3814 98.226 45.3814 98.7066C45.3814 99.1873 45.0335 99.4846 44.4833 99.4846H43.5251V97.1034ZM44.4801 99.1114C44.7901 99.1114 44.9703 98.9723 44.9703 98.7035C44.9703 98.4568 44.79 98.3272 44.4738 98.3272H43.9426V99.1114H44.4801ZM45.666 97.1034H46.0803V99.4846H45.666V97.1034Z" fill="#6D6E70"/>
<path d="M47.7117 97.1034H48.1228V98.8426L49.3276 97.1034H49.7197V99.4846H49.3086V97.7485L48.107 99.4846H47.7117V97.1034ZM48.1923 96.4393L48.4485 96.3919C48.4896 96.5342 48.5781 96.6227 48.7299 96.6227C48.8817 96.6227 48.9671 96.5342 49.0114 96.3919L49.2643 96.4393C49.2201 96.7302 49.0177 96.9168 48.7299 96.9168C48.4422 96.9168 48.2398 96.7334 48.1923 96.4393Z" fill="#6D6E70"/>
<path d="M53.3943 97.1034H55.3359V99.4846H54.9185V97.4797H53.8117V99.4846H53.3943V97.1034Z" fill="#6D6E70"/>
<path d="M56.8633 98.2956C56.8633 97.6252 57.3787 97.0654 58.1124 97.0654C58.8429 97.0654 59.3551 97.6188 59.3551 98.2956C59.3551 98.966 58.8397 99.5257 58.106 99.5257C57.3756 99.5257 56.8633 98.9723 56.8633 98.2956ZM58.9156 98.2956C58.9156 97.8339 58.5804 97.4481 58.106 97.4481C57.6317 97.4481 57.3028 97.8244 57.3028 98.2956C57.3028 98.7573 57.638 99.143 58.1124 99.143C58.5867 99.1399 58.9156 98.7636 58.9156 98.2956Z" fill="#6D6E70"/>
<path d="M60.7749 98.2956C60.7749 97.6188 61.2809 97.0654 62.0019 97.0654C62.4414 97.0654 62.7071 97.2172 62.9347 97.4354L62.6659 97.7453C62.4762 97.5682 62.2707 97.4481 61.9987 97.4481C61.5433 97.4481 61.2113 97.8212 61.2113 98.2956C61.2113 98.7604 61.5402 99.143 61.9987 99.143C62.2896 99.143 62.4794 99.0229 62.6818 98.8331L62.9506 99.1051C62.7007 99.3644 62.4288 99.5257 61.9829 99.5257C61.2935 99.5257 60.7749 98.9849 60.7749 98.2956Z" fill="#6D6E70"/>
<path d="M64.4116 97.1034H66.1762V97.4765H64.829V98.0963H66.0244V98.4695H64.829V99.1082H66.192V99.4814H64.4084V97.1034H64.4116Z" fill="#6D6E70"/>
<path d="M67.4221 99.4751L67.4632 99.1304C67.4949 99.1399 67.5486 99.1494 67.5992 99.1494C67.8395 99.1494 68.0641 98.9976 68.0641 97.5714V97.1034H69.6958V99.4846H69.2784V97.4797H68.4562V97.6947C68.4562 99.2095 68.1811 99.5099 67.7099 99.5099C67.6182 99.513 67.4854 99.4909 67.4221 99.4751Z" fill="#6D6E70"/>
<path d="M71.2263 98.2956C71.2263 97.6252 71.7418 97.0654 72.4754 97.0654C73.2059 97.0654 73.7182 97.6188 73.7182 98.2956C73.7182 98.966 73.2027 99.5257 72.4691 99.5257C71.7386 99.5257 71.2263 98.9723 71.2263 98.2956ZM73.2786 98.2956C73.2786 97.8339 72.9434 97.4481 72.4691 97.4481C71.9947 97.4481 71.6659 97.8244 71.6659 98.2956C71.6659 98.7573 72.0011 99.143 72.4754 99.143C72.9497 99.1399 73.2786 98.7636 73.2786 98.2956Z" fill="#6D6E70"/>
<path d="M75.2422 97.1034H75.6596V98.3019L76.7917 97.1034H77.304L76.3142 98.1279L77.3482 99.4846H76.8423L76.0296 98.4126L75.6596 98.7952V99.4846H75.2422V97.1034Z" fill="#6D6E70"/>
<path d="M0 75.5716V74.7209L0.781077 74.6292C0.872782 74.6103 0.926541 74.5881 0.948676 74.5565C0.970812 74.5249 0.980299 74.4616 0.980299 74.3636V67.179C0.980299 67.0809 0.970812 67.0145 0.948676 66.9797C0.926541 66.945 0.872782 66.9228 0.781077 66.9133L0 66.8216V65.9583H3.97812C4.54732 65.9583 5.02482 66.0342 5.41062 66.1828C5.79325 66.3346 6.10315 66.5402 6.334 66.7995C6.56484 67.062 6.72928 67.3624 6.82414 67.7039C6.91901 68.0454 6.96645 68.4059 6.96645 68.7854C6.96645 69.3609 6.88739 69.8511 6.73244 70.2527C6.57433 70.6543 6.34981 70.9863 6.05572 71.2425C5.76163 71.4986 5.40429 71.6852 4.98371 71.799C4.56313 71.916 4.09196 71.9729 3.57018 71.9729H2.41912V74.351C2.41912 74.4585 2.42861 74.5249 2.45075 74.5502C2.46972 74.5755 2.52664 74.5976 2.61835 74.6166L4.38921 74.7241V75.5748H0V75.5716ZM3.39626 70.8314C3.66822 70.8314 3.92752 70.8092 4.17734 70.765C4.42399 70.7207 4.64535 70.629 4.83509 70.493C5.02482 70.357 5.17661 70.1578 5.29361 69.8953C5.41062 69.6329 5.46754 69.2913 5.46754 68.8676C5.46754 68.5324 5.42327 68.251 5.33789 68.0233C5.2525 67.7956 5.12601 67.6185 4.96158 67.4857C4.79714 67.3529 4.59476 67.258 4.35442 67.2011C4.11409 67.1442 3.84214 67.1157 3.5354 67.1157H2.41912V70.8345H3.39626V70.8314Z" fill="#404041"/>
<path d="M8.31665 75.5716V74.7209L9.09773 74.6292C9.18943 74.6103 9.24319 74.5881 9.26533 74.5565C9.28746 74.5249 9.29695 74.4616 9.29695 74.3636V67.179C9.29695 67.0809 9.28746 67.0145 9.26533 66.9797C9.24319 66.945 9.18943 66.9228 9.09773 66.9133L8.31665 66.8216V65.9583H14.6854V68.349L13.6324 68.2952L13.4585 67.2738C13.4332 67.16 13.3636 67.0999 13.2466 67.0999H10.7453V70.1546H13.8917V71.3089H10.7453V74.4427H13.5217C13.5881 74.4427 13.6324 74.4363 13.6577 74.4237C13.683 74.411 13.702 74.3699 13.7209 74.2972L13.9202 73.1272H14.9606V75.5716H8.31665Z" fill="#404041"/>
<path d="M19.5682 65.7844C20.5169 65.7844 21.2379 65.9868 21.7312 66.3947C22.2214 66.8026 22.468 67.4003 22.468 68.1877C22.468 68.798 22.3036 69.304 21.9779 69.7024C21.6521 70.1009 21.2284 70.376 20.7066 70.5246V70.5784C21.3011 70.6859 21.7755 70.9294 22.1328 71.3152C22.4901 71.701 22.6641 72.248 22.6641 72.9564C22.6641 73.3548 22.5913 73.7216 22.4459 74.06C22.3004 74.3984 22.0885 74.6893 21.8071 74.9359C21.5257 75.1858 21.1746 75.3787 20.7541 75.521C20.3335 75.6633 19.8402 75.7328 19.2805 75.7328C19.0148 75.7328 18.7492 75.7138 18.4741 75.6791C18.2021 75.6443 17.9428 75.5937 17.6993 75.5336C17.4558 75.4704 17.2313 75.3976 17.0289 75.3154C16.8265 75.23 16.6589 75.1446 16.5261 75.0561V72.8773H17.5918L17.8163 74.06C17.8321 74.1232 17.8511 74.1675 17.8732 74.1991C17.8954 74.2308 17.9365 74.2624 18.0029 74.2972C18.2021 74.3762 18.4108 74.4331 18.629 74.4711C18.8472 74.5059 19.0654 74.5248 19.2805 74.5248C19.5429 74.5248 19.7927 74.4932 20.0236 74.4237C20.2544 74.3572 20.4537 74.2592 20.6244 74.1264C20.792 73.9936 20.9248 73.8228 21.0197 73.6141C21.1146 73.4054 21.162 73.1556 21.162 72.8647C21.162 72.3239 21.0007 71.9286 20.6782 71.6757C20.3556 71.4227 19.9129 71.2962 19.3532 71.2962H18.0883V70.1009H18.8441C19.5303 70.1009 20.0584 69.9428 20.4284 69.6234C20.7983 69.304 20.9849 68.8897 20.9849 68.3743C20.9849 68.1087 20.9438 67.8841 20.8616 67.6976C20.7794 67.511 20.6687 67.3624 20.5264 67.2517C20.3872 67.141 20.2196 67.062 20.0299 67.0114C19.8402 66.9639 19.6346 66.9386 19.4101 66.9386C19.1698 66.9386 18.9516 66.9576 18.7524 66.9987C18.5531 67.0398 18.3602 67.0904 18.1705 67.1505C18.0725 67.1853 18.0124 67.2643 17.9966 67.3908L17.7847 68.5862L16.7317 68.6652V66.5402C17.0447 66.3378 17.459 66.1607 17.9713 66.0089C18.4962 65.8603 19.0243 65.7844 19.5682 65.7844Z" fill="#404041"/>
<path d="M29.5765 75.5716V74.7209L30.3575 74.6292C30.4492 74.6103 30.503 74.5881 30.5251 74.5565C30.5473 74.5249 30.5568 74.4616 30.5568 74.3636V68.0138H30.5062L26.5407 75.5716H24.0488V74.7209L24.8299 74.6292C24.9216 74.6103 24.9754 74.5881 24.9975 74.5565C25.0196 74.5249 25.0291 74.4616 25.0291 74.3636V67.1663C25.0291 67.0683 25.0196 67.0019 24.9975 66.9671C24.9754 66.9323 24.9216 66.9102 24.8299 66.9007L24.0488 66.809V65.9583H27.4799V66.809L26.6482 66.9165C26.5565 66.9355 26.5027 66.9576 26.4806 66.9829C26.4585 67.0082 26.449 67.0714 26.449 67.1695V73.3865H26.4996L30.4018 65.9615H33.0043V66.8121L32.1727 66.9197C32.081 66.9386 32.0272 66.9608 32.0051 66.9861C31.9829 67.0114 31.9734 67.0746 31.9734 67.1726V74.3573C31.9734 74.4648 31.9829 74.5312 32.0051 74.5565C32.0272 74.5818 32.081 74.6039 32.1727 74.6229L33.0043 74.7304V75.5811H29.5765V75.5716Z" fill="#404041"/>
<path d="M36.0149 75.5716C35.9485 75.5716 35.9042 75.5842 35.8789 75.6127C35.8536 75.6412 35.8378 75.6823 35.8283 75.7455L35.5816 77.4974L34.5413 77.5512V74.43H35.2591C35.4899 74.0948 35.6955 73.7406 35.8726 73.3675C36.0497 72.9943 36.1983 72.5769 36.3184 72.1121C36.4386 71.6472 36.5303 71.116 36.5904 70.5183C36.6536 69.9206 36.6821 69.2313 36.6821 68.4533V67.1916C36.6821 67.0936 36.6726 67.024 36.6505 66.9861C36.6284 66.9481 36.5746 66.9165 36.4829 66.9007L35.7018 66.809V65.9583H43.1363V66.809L42.3046 66.9165C42.2224 66.9355 42.1686 66.9608 42.1433 66.9955C42.118 67.0303 42.1054 67.0967 42.1054 67.1948V74.4332H43.0952V77.5543L42.0421 77.5006L41.8176 75.7487C41.8081 75.6348 41.7417 75.5748 41.6184 75.5748H36.0149V75.5716ZM38.0482 68.3869C38.0482 69.7941 37.9533 70.9863 37.7636 71.9666C37.5739 72.9438 37.2608 73.7659 36.8212 74.43H40.6634V67.0999H38.0482V68.3869Z" fill="#404041"/>
<path d="M44.7935 75.5716V74.7209L45.5745 74.6292C45.6662 74.6103 45.72 74.5881 45.7421 74.5565C45.7643 74.5249 45.7738 74.4616 45.7738 74.3636V67.179C45.7738 67.0809 45.7643 67.0145 45.7421 66.9797C45.72 66.945 45.6662 66.9228 45.5745 66.9133L44.7935 66.8216V65.9583H51.1622V68.349L50.1092 68.2952L49.9353 67.2738C49.91 67.16 49.8404 67.0999 49.7234 67.0999H47.2221V70.1546H50.3685V71.3089H47.2221V74.4427H49.9985C50.0649 74.4427 50.1092 74.4363 50.1345 74.4237C50.1598 74.411 50.1788 74.3699 50.1978 74.2972L50.397 73.1272H51.4374V75.5716H44.7935Z" fill="#404041"/>
<path d="M58.413 75.5716V74.7209L59.1941 74.6292C59.2858 74.6103 59.3395 74.5881 59.3617 74.5565C59.3806 74.5249 59.3933 74.4616 59.3933 74.3636V71.2013H55.4784V74.3478C55.4784 74.4553 55.4879 74.5217 55.51 74.547C55.529 74.5723 55.5859 74.5944 55.6776 74.6134L56.5093 74.7209V75.5716H53.053V74.7209L53.8341 74.6292C53.9258 74.6103 53.9795 74.5881 54.0017 74.5565C54.0238 74.5249 54.0333 74.4616 54.0333 74.3636V67.1663C54.0333 67.0683 54.0238 67.0019 54.0017 66.9671C53.9795 66.9323 53.9258 66.9102 53.8341 66.9007L53.053 66.809V65.9583H56.5093V66.809L55.6776 66.9165C55.5859 66.9355 55.5322 66.9576 55.51 66.9829C55.4879 67.0082 55.4784 67.0714 55.4784 67.1695V70.0376H59.3933V67.1695C59.3933 67.0714 59.3838 67.005 59.3617 66.9702C59.3395 66.9355 59.2858 66.9133 59.1941 66.9038L58.413 66.8121V65.9615H61.8187V66.8121L61.0377 66.9197C60.946 66.9386 60.8922 66.9608 60.8701 66.9861C60.8479 67.0114 60.8384 67.0746 60.8384 67.1726V74.3573C60.8384 74.4648 60.8479 74.5312 60.8701 74.5565C60.8922 74.5818 60.946 74.6039 61.0377 74.6229L61.8187 74.7304V75.5811H58.413V75.5716Z" fill="#404041"/>
<path d="M70.9201 77.5764L70.686 75.7423C70.6702 75.6727 70.6481 75.6253 70.6228 75.6032C70.5975 75.581 70.5532 75.5715 70.4868 75.5715H63.4856V74.7209L64.3173 74.6134C64.409 74.5944 64.4627 74.5723 64.4849 74.547C64.507 74.5217 64.5165 74.4584 64.5165 74.3604V67.1758C64.5165 67.0682 64.507 67.0018 64.4849 66.9765C64.4627 66.9512 64.409 66.9291 64.3173 66.9101L63.4856 66.8026V65.952H66.8913V66.8026L66.1609 66.8943C66.0692 66.9133 66.0154 66.9354 65.9933 66.967C65.9711 66.9987 65.9616 67.0619 65.9616 67.1599V74.4236H69.4433V67.1726C69.4433 67.0651 69.4338 66.9987 69.4117 66.9734C69.3895 66.9481 69.3358 66.9259 69.2441 66.907L68.4883 66.7994V65.9488H71.8719V66.7994L71.0908 66.8912C70.9991 66.9101 70.9454 66.9323 70.9232 66.9639C70.9011 66.9955 70.8916 67.0587 70.8916 67.1568V74.4205H71.9446V77.6492L70.9201 77.5764Z" fill="#404041"/>
<path d="M79.1009 75.5716V74.7209L79.882 74.6292C79.9737 74.6103 80.0274 74.5881 80.0496 74.5565C80.0717 74.5249 80.0812 74.4616 80.0812 74.3636V68.0138H80.0306L76.0651 75.5716H73.5732V74.7209L74.3543 74.6292C74.446 74.6103 74.4998 74.5881 74.5219 74.5565C74.5441 74.5249 74.5535 74.4616 74.5535 74.3636V67.1663C74.5535 67.0683 74.5441 67.0019 74.5219 66.9671C74.4998 66.9323 74.446 66.9102 74.3543 66.9007L73.5732 66.809V65.9583H77.0043V66.809L76.1726 66.9165C76.0809 66.9355 76.0272 66.9576 76.005 66.9829C75.9829 67.0082 75.9734 67.0714 75.9734 67.1695V73.3865H76.024L79.9262 65.9615H82.5288V66.8121L81.6971 66.9197C81.6054 66.9386 81.5516 66.9608 81.5295 66.9861C81.5074 67.0114 81.4979 67.0746 81.4979 67.1726V74.3573C81.4979 74.4648 81.5074 74.5312 81.5295 74.5565C81.5516 74.5818 81.6054 74.6039 81.6971 74.6229L82.5288 74.7304V75.5811H79.1009V75.5716Z" fill="#404041"/>
<path d="M84.0276 74.7209L84.8339 74.5755C84.9509 74.5565 85.0268 74.5281 85.0679 74.4838C85.109 74.4395 85.1533 74.3541 85.2039 74.2308L85.9597 72.4378C86.0988 72.1089 86.2411 71.837 86.3866 71.6219C86.5321 71.4037 86.7471 71.2393 87.038 71.1223V71.097C86.7661 71.0527 86.5099 70.9737 86.2696 70.8567C86.0293 70.7428 85.8206 70.5847 85.6371 70.3855C85.4537 70.1863 85.3114 69.9459 85.2039 69.6677C85.0964 69.3894 85.0426 69.0637 85.0426 68.6905C85.0426 68.1782 85.128 67.745 85.3019 67.3972C85.4759 67.0462 85.7067 66.7647 85.9945 66.5528C86.2822 66.341 86.6143 66.1892 86.9906 66.0943C87.3669 66.0026 87.7558 65.9552 88.1606 65.9552H91.9395V66.8185L91.1584 66.9102C91.0667 66.9292 91.013 66.9545 90.9908 66.9892C90.9687 67.024 90.9592 67.0968 90.9592 67.2011V74.3605C90.9592 74.4585 90.9687 74.5217 90.9908 74.5534C91.0098 74.585 91.0667 74.6071 91.1584 74.6261L91.9395 74.7178V75.5684H88.5685V74.7178L89.3243 74.6103C89.416 74.5913 89.4698 74.5692 89.4919 74.5375C89.5109 74.5059 89.5235 74.4363 89.5235 74.332V71.5555H88.4073C88.1922 71.5555 88.0278 71.6061 87.9108 71.7073C87.7938 71.8085 87.6831 71.9761 87.5756 72.207C87.4839 72.403 87.389 72.6275 87.2847 72.8837C87.1803 73.1398 87.0728 73.4149 86.9558 73.7059C86.8388 73.9968 86.725 74.3035 86.608 74.6229C86.491 74.9423 86.3771 75.2554 86.2601 75.5653H84.0181V74.7209H84.0276ZM89.5267 67.1126H88.3251C88.0689 67.1126 87.8349 67.1379 87.6199 67.1916C87.4048 67.2454 87.2183 67.3339 87.057 67.4572C86.8957 67.5806 86.7692 67.7482 86.6807 67.9632C86.589 68.1751 86.5447 68.4375 86.5447 68.7474C86.5447 69.1016 86.6016 69.3894 86.7186 69.6107C86.8356 69.8321 86.9906 70.0029 87.1835 70.123C87.3764 70.2432 87.6009 70.3254 87.8539 70.3697C88.1069 70.414 88.363 70.4361 88.6286 70.4361H89.533V67.1126H89.5267Z" fill="#404041"/>
<path d="M15.8999 90.118V89.2673L16.915 89.1471L16.3458 87.3542H13.0381L12.4689 89.1471L13.4586 89.2673V90.118H10.3628V89.28L10.8941 89.1345C10.9699 89.1155 11.0332 89.0902 11.087 89.0555C11.1407 89.0207 11.1787 88.9637 11.204 88.8815L13.9298 80.5015H15.6754L18.4139 88.91C18.4392 88.989 18.4771 89.0428 18.5246 89.0681C18.5752 89.0934 18.6353 89.1155 18.7112 89.1345L19.2804 89.28V90.118H15.8999ZM14.7235 81.9783H14.6856L13.3606 86.1873H16.0359L14.7235 81.9783Z" fill="#404041"/>
<path d="M25.5448 90.118V89.2673L26.4871 89.1471L24.5676 86.1999L22.6829 89.1471L23.6126 89.2673V90.118H20.5042V89.2958L21.184 89.1503C21.3074 89.1155 21.4149 89.0301 21.5066 88.8973L23.8593 85.3366L21.4813 81.7253C21.4402 81.6558 21.3991 81.6052 21.358 81.5735C21.3169 81.5419 21.2599 81.5198 21.184 81.5008L20.5769 81.3553L20.7002 80.5047H23.9573V81.3553L23.0023 81.4755L24.7985 84.3057L26.6579 81.4755L25.7282 81.3553L25.8515 80.5047H28.6881V81.3553L28.1189 81.5008C28.043 81.5198 27.986 81.5482 27.9449 81.5862C27.9038 81.6241 27.8596 81.6811 27.809 81.7538L25.5163 85.1532L28.0556 88.8973C28.0967 88.9669 28.1378 89.0175 28.1789 89.0491C28.2201 89.0807 28.277 89.106 28.3529 89.1218L28.998 89.2673V90.118H25.5448Z" fill="#404041"/>
<path d="M30.4399 89.2673L31.2716 89.1598C31.3633 89.1408 31.4171 89.1187 31.4392 89.0934C31.4613 89.0681 31.4708 89.0049 31.4708 88.9068V81.7222C31.4708 81.6147 31.4613 81.5483 31.4392 81.523C31.4171 81.4977 31.3633 81.4755 31.2716 81.4565L30.4399 81.349V80.4984H33.7477V81.349L33.1152 81.4407C33.0235 81.4597 32.9697 81.4818 32.9476 81.5135C32.9255 81.5451 32.916 81.6083 32.916 81.7064V88.9701H35.6924V81.7064C35.6924 81.6083 35.683 81.5419 35.6608 81.5071C35.6387 81.4724 35.5849 81.4502 35.4932 81.4407L34.7627 81.349V80.4984H38.0831V81.349L37.34 81.4407C37.2483 81.4597 37.1945 81.4818 37.1724 81.5135C37.1502 81.5451 37.1408 81.6083 37.1408 81.7064V88.9701H39.9647V81.719C39.9647 81.6115 39.9552 81.5451 39.933 81.5135C39.9109 81.4818 39.8571 81.4597 39.7654 81.4407L39.1077 81.349V80.4984H42.3901V81.349L41.609 81.4407C41.5173 81.4597 41.4636 81.4818 41.4414 81.5135C41.4193 81.5451 41.4098 81.6083 41.4098 81.7064V88.9321C41.4098 89.0207 41.4225 89.0776 41.4478 89.106C41.4731 89.1345 41.5268 89.1503 41.609 89.1598L42.4154 89.2673V90.118H30.4368V89.2673H30.4399Z" fill="#404041"/>
<path d="M45.5175 90.118V89.2547L46.7951 89.163C46.8868 89.1535 46.9405 89.1313 46.9627 89.0966C46.9848 89.0618 46.9943 88.9954 46.9943 88.8973V81.6463H45.3341C45.2677 81.6463 45.2234 81.6526 45.1981 81.6653C45.1728 81.6779 45.1538 81.7222 45.1349 81.7918L44.9356 82.946H43.8953V80.5015H51.5384V82.946H50.5107L50.3115 81.7918C50.2957 81.7222 50.2735 81.6779 50.2482 81.6653C50.2229 81.6526 50.1787 81.6463 50.1123 81.6463H48.4394V88.8973C48.4394 88.9954 48.4489 89.0586 48.471 89.0902C48.49 89.1219 48.5469 89.1408 48.6386 89.1503L50.0016 89.2578V90.1211H45.5175V90.118Z" fill="#404041"/>
<path d="M53.0596 80.5015H56.9365V81.3522L55.7348 81.4724C55.6431 81.4819 55.5862 81.5008 55.5609 81.5324C55.5356 81.5641 55.523 81.6336 55.523 81.738V84.3943H57.0345C57.5784 84.3943 58.0401 84.4607 58.4164 84.5935C58.7927 84.7263 59.0995 84.9129 59.3335 85.1501C59.5675 85.3872 59.7383 85.6718 59.8426 86.0007C59.947 86.3296 59.9976 86.6901 59.9976 87.0885C59.9976 87.6293 59.9185 88.091 59.7572 88.4768C59.5959 88.8626 59.3746 89.1756 59.0868 89.4191C58.8022 89.6626 58.4607 89.8397 58.0654 89.9504C57.6701 90.061 57.2337 90.118 56.7657 90.118H53.1102V89.2673L53.8912 89.1756C53.9829 89.1566 54.0367 89.1345 54.0588 89.1029C54.081 89.0713 54.0905 89.008 54.0905 88.91V81.6842C54.0905 81.5862 54.0778 81.5261 54.0525 81.504C54.0272 81.4819 53.9735 81.4629 53.8912 81.4439L53.0596 81.3522V80.5015ZM56.6013 88.9637C56.8732 88.9637 57.1262 88.9384 57.3571 88.8847C57.5879 88.8309 57.7871 88.7329 57.9579 88.5938C58.1287 88.4515 58.2583 88.2649 58.3532 88.0277C58.448 87.7937 58.4955 87.4996 58.4955 87.1455C58.4955 86.5509 58.3342 86.1304 58.0117 85.8837C57.6891 85.6371 57.2654 85.5106 56.7341 85.5106H55.5198V88.9637H56.6013ZM60.3802 90.118V89.2673L61.2846 89.1756C61.3763 89.1661 61.4301 89.144 61.4522 89.1092C61.4743 89.0744 61.4838 89.008 61.4838 88.91V81.7127C61.4838 81.6147 61.4743 81.5483 61.4522 81.5135C61.4301 81.4787 61.3763 81.4565 61.2846 81.4471L60.3802 81.3554V80.5047H64.0832V81.3554L63.1282 81.4629C63.0365 81.4819 62.9827 81.504 62.9606 81.5293C62.9385 81.5546 62.929 81.6178 62.929 81.7159V88.9005C62.929 89.008 62.9385 89.0744 62.9606 89.0997C62.9796 89.125 63.0365 89.1472 63.1282 89.1661L64.0832 89.2736V90.1243H60.3802V90.118Z" fill="#404041"/>
<path d="M65.696 90.118V89.2673L66.4771 89.1756C66.5688 89.1566 66.6226 89.1345 66.6447 89.1029C66.6669 89.0713 66.6763 89.008 66.6763 88.91V81.7253C66.6763 81.6273 66.6669 81.5609 66.6447 81.5261C66.6226 81.4913 66.5688 81.4692 66.4771 81.4597L65.696 81.368V80.5047H69.6742C70.2434 80.5047 70.7209 80.5806 71.1067 80.7292C71.4893 80.881 71.7992 81.0866 72.0301 81.3459C72.2609 81.6083 72.4253 81.9087 72.5202 82.2503C72.6151 82.5918 72.6625 82.9523 72.6625 83.3318C72.6625 83.9073 72.5835 84.3974 72.4285 84.799C72.2704 85.2006 72.0459 85.5327 71.7518 85.7888C71.4577 86.045 71.1004 86.2315 70.6798 86.3454C70.2592 86.4624 69.788 86.5193 69.2662 86.5193H68.1152V88.8973C68.1152 89.0049 68.1247 89.0713 68.1468 89.0965C68.1658 89.1218 68.2227 89.144 68.3144 89.163L70.0853 89.2705V90.1211H65.696V90.118ZM69.0892 85.3777C69.3611 85.3777 69.6204 85.3556 69.8702 85.3113C70.1169 85.2671 70.3382 85.1754 70.528 85.0394C70.7177 84.9034 70.8695 84.7042 70.9865 84.4417C71.1035 84.1792 71.1604 83.8377 71.1604 83.414C71.1604 83.0788 71.1162 82.7973 71.0308 82.5697C70.9454 82.342 70.8189 82.1649 70.6545 82.0321C70.49 81.8993 70.2877 81.8044 70.0473 81.7475C69.807 81.6905 69.535 81.6621 69.2283 81.6621H68.112V85.3809H69.0892V85.3777Z" fill="#404041"/>
<path d="M73.9902 80.5015H77.8672V81.3522L76.6655 81.4724C76.5738 81.4818 76.5169 81.5008 76.4916 81.5324C76.4663 81.5641 76.4536 81.6336 76.4536 81.738V84.3943H78.1138C78.6577 84.3943 79.1194 84.4607 79.4957 84.5935C79.872 84.7263 80.1788 84.9129 80.4128 85.1501C80.6499 85.3904 80.8175 85.6718 80.9219 86.0007C81.0263 86.3296 81.0769 86.6901 81.0769 87.0885C81.0769 87.6293 80.9978 88.091 80.8365 88.4768C80.6753 88.8625 80.4539 89.1756 80.1661 89.4191C79.8784 89.6626 79.54 89.8397 79.1447 89.9504C78.7494 90.061 78.313 90.118 77.845 90.118H74.0408V89.2673L74.8219 89.1756C74.9136 89.1566 74.9674 89.1345 74.9895 89.1029C75.0116 89.0713 75.0211 89.008 75.0211 88.91V81.6842C75.0211 81.5862 75.0085 81.5261 74.9832 81.504C74.9579 81.4819 74.9041 81.4629 74.8219 81.4439L73.9902 81.3522V80.5015ZM77.6806 88.9637C77.9525 88.9637 78.2055 88.9384 78.4364 88.8847C78.6672 88.8309 78.8696 88.7329 79.0372 88.5938C79.2048 88.4546 79.3376 88.2649 79.4325 88.0277C79.5274 87.7937 79.5748 87.4996 79.5748 87.1454C79.5748 86.5509 79.4135 86.1304 79.091 85.8837C78.7684 85.6371 78.3447 85.5106 77.8134 85.5106H76.4505V88.9637H77.6806Z" fill="#404041"/>
</svg>
